<svg width="102" height="34" viewBox="0 0 102 34" fill="none" xmlns="http://www.w3.org/2000/svg">
<g clip-path="url(#clip0_111_33542)">
<path d="M42.8217 8.4523C44.0935 8.4523 45.1086 8.61087 46.0793 9.14172C46.8469 9.55308 47.3808 10.2689 47.7401 11.0055C47.9191 11.3559 47.9659 11.7753 48.0092 12.2005C48.0195 12.3292 48.0035 12.4624 47.9956 12.5819L47.9842 12.6922C47.8952 13.5793 47.2473 14.3733 46.2835 14.3733C45.3196 14.3733 44.5782 13.6092 44.5782 12.6532C44.5782 12.3533 44.6877 12.112 44.8041 11.9178C44.9101 11.7489 45.0356 11.5915 45.1383 11.4111C45.2329 11.2341 45.1839 10.9078 44.7402 10.5976C44.3284 10.3103 43.7376 10.1919 43.2859 10.1919C42.2878 10.1919 41.4723 10.9802 41.4267 11.9741C41.4278 12.0982 41.4358 13.5655 41.4358 14.2297V16.6909H44.5931V18.7132H41.4677V33.9977H35.2467V31.9041H36.9896L36.9599 14.032C36.9599 12.2499 37.5394 10.8216 38.7838 9.86332C39.9792 8.9326 41.324 8.44885 42.8239 8.44885L42.8217 8.4523Z" fill="white"/>
<path d="M88.6922 32.1075C87.3463 33.5082 85.4848 33.9586 83.5616 33.9586C81.829 33.9586 80.5082 33.5852 79.5797 32.8682C78.617 32.088 78.2178 30.7792 78.2178 29.1304V16.6943H82.6594V28.9649C82.6594 30.423 82.9195 31.2009 83.2297 31.564C83.5491 31.9363 84.0019 32.1661 84.7 32.1661C85.9228 32.1661 86.89 31.6686 87.5698 30.6184C88.2873 29.4946 88.6911 28.1847 88.6911 26.6415V18.7166H86.947V16.7093H93.1692V34.0011H88.6911V32.1087L88.6922 32.1075Z" fill="white"/>
<path d="M77.1924 32.1305V34H62.7634L70.7181 18.7155H62.7634V16.6932H77.1924L69.0391 32.1305H77.1924Z" fill="white"/>
<path d="M95.9432 11.2536H94.1969V9.23132H100.418V34H95.9432V11.2536Z" fill="white"/>
<path d="M56.6906 32.1075C55.347 33.5082 53.4854 33.9586 51.5635 33.9586C49.8274 33.9586 48.5066 33.5852 47.5792 32.8682C46.6188 32.088 46.2162 30.7792 46.2162 29.1304V16.6943H50.6624V28.9649C50.6624 30.423 50.9236 31.2009 51.2316 31.564C51.5509 31.9363 52.0083 32.1661 52.6995 32.1661C53.9291 32.1661 54.8918 31.6686 55.5762 30.6184C56.2914 29.4946 56.6929 28.1847 56.6929 26.6415V18.7166H54.95V16.6943H61.1676V34.0023H56.6929V32.1098L56.6906 32.1075Z" fill="white"/>
<path d="M100.254 31.9788H102V34H95.779V9.23132H100.254V31.9788Z" fill="white"/>
<path d="M31.5693 14.2009L18.3665 0.900845C17.7893 0.319432 17.0228 0 16.2073 0C15.3917 0 14.6241 0.320581 14.0481 0.900845L0.845234 14.2009C0.0114304 15.0409 -0.225821 16.2451 0.224729 17.3436C0.635357 18.3432 1.5125 18.9982 2.55618 19.1073V30.9171C2.55618 32.6131 3.92608 33.9931 5.60966 33.9931H26.8038C28.4873 33.9931 29.8572 32.6131 29.8572 30.9171V19.1073C30.9009 18.9982 31.7781 18.3432 32.1887 17.3436C32.6404 16.2451 32.402 15.042 31.5682 14.2009H31.5693Z" fill="#00C1CB"/>
<path d="M24.2943 12.7589C24.1426 12.5095 23.9898 12.4383 23.3773 12.4394C21.7599 12.4739 20.1424 12.5072 18.525 12.5417C19.7729 12.0867 21.0219 11.6317 22.2697 11.1755C22.3849 11.1387 22.7796 10.9962 23.0146 10.5895C23.1263 10.3953 23.1628 10.208 23.1754 10.0851C23.172 9.9219 23.1024 9.7978 23.0636 9.75644C22.8229 9.49446 22.0176 9.71737 21.9298 9.73805C19.9793 10.3252 18.03 10.9135 16.0795 11.5007C15.0141 11.3329 13.9477 11.1663 12.8823 10.9985C12.0702 10.2184 11.258 9.43815 10.4471 8.65796C9.35775 9.70818 8.26844 10.7584 7.17914 11.8086C9.07145 12.4923 9.78891 13.3908 10.09 14.0941C10.341 14.6789 10.2634 15.0236 10.6718 15.6947C11.2501 16.6449 11.7029 16.4071 12.5162 17.409C13.1059 18.1375 13.1823 18.6511 14.0366 19.5026C14.34 19.8048 14.5237 19.9277 14.6914 19.8381C14.7917 19.7852 14.9309 19.7002 14.9925 19.5554C15.0404 19.444 15.0621 19.3164 15.0997 19.0774C15.3141 17.7537 14.1769 17.0379 14.2636 15.9796C14.3309 15.1443 15.11 14.3825 16.0236 14.2722C16.935 14.1618 17.5943 14.7938 17.6216 14.8202C17.6741 14.8719 18.2125 15.42 18.2079 16.2071C18.2034 16.9988 17.6456 18.0215 17.4939 18.3156C17.4403 18.4202 17.284 18.6902 17.3536 18.9947C17.3935 19.1716 17.4984 19.2969 17.5703 19.375C17.6342 19.4451 17.6889 19.4658 17.7779 19.4865C18.0517 19.5497 18.5786 19.0855 18.9288 18.6557C19.247 18.2651 19.685 17.7273 19.8539 16.8632C19.9987 16.1255 19.8778 15.5097 19.7786 15.1638C19.7478 15.0512 19.7056 14.9283 19.6485 14.7973C19.5379 14.5456 19.4033 14.348 19.2858 14.2009C20.6306 14.0964 21.9743 13.9918 23.3191 13.8872C23.4046 13.8803 24.0001 13.824 24.2419 13.3725C24.2761 13.3081 24.3092 13.2254 24.3263 13.1208C24.3457 12.9186 24.3206 12.8002 24.2955 12.7589H24.2943Z" fill="white"/>
<path d="M7.55669 12.9784L5.47504 10.8814L9.9121 6.41162L11.9938 8.50861C12.2755 8.79243 12.2755 9.25204 11.9938 9.53585L8.57528 12.9795C8.29354 13.2633 7.83729 13.2633 7.55555 12.9795L7.55669 12.9784Z" fill="#004897"/>
<path d="M22.532 24.8192H9.73186C9.1901 24.8192 8.75092 25.2616 8.75092 25.8074V25.8085C8.75092 26.3543 9.1901 26.7967 9.73186 26.7967H22.532C23.0738 26.7967 23.513 26.3543 23.513 25.8085V25.8074C23.513 25.2616 23.0738 24.8192 22.532 24.8192Z" fill="#004897"/>
<path d="M18.6744 26.8128C18.7714 26.5359 18.8261 26.2382 18.825 25.928C18.8193 24.4722 17.6433 23.2979 16.197 23.3036C14.7506 23.3094 13.5826 24.494 13.5883 25.9498C13.5883 26.2532 13.6442 26.5427 13.7378 26.8128H18.6733H18.6744Z" fill="white"/>
<path d="M16.7091 16.8989H15.8103C15.7271 16.8989 15.6597 16.9668 15.6597 17.0506V22.0351C15.6597 22.1189 15.7271 22.1868 15.8103 22.1868H16.7091C16.7923 22.1868 16.8597 22.1189 16.8597 22.0351V17.0506C16.8597 16.9668 16.7923 16.8989 16.7091 16.8989Z" fill="white"/>
</g>
<defs>
<clipPath id="clip0_111_33542">
<rect width="102" height="34" fill="white"/>
</clipPath>
</defs>
</svg>
