<svg width="256" height="256" viewBox="0 0 60 60" fill="none" xmlns="http://www.w3.org/2000/svg">
	<rect width="128" height="128" rx="8" fill="#F1416C" fill-opacity="0.1"/>
<path d="M34.0063 22.0008C35.9525 22.0008 37.8987 21.9999 39.8453 22.0012C40.2961 22.0012 40.7478 22.0284 41.1839 22.1372C41.4792 22.2107 41.7674 22.322 42.0457 22.4431C42.4487 22.6186 42.8079 22.8638 43.1323 23.1524C43.4594 23.4435 43.727 23.7796 43.9633 24.1404C44.2082 24.5143 44.4575 24.8853 44.7041 25.2584C44.9485 25.6285 45.1915 25.9995 45.4359 26.3692C45.7156 26.7929 45.9966 27.2157 46.2763 27.6394C46.3791 27.7945 46.4948 27.9437 46.5783 28.1077C46.6686 28.2849 46.8303 28.3559 46.9997 28.4294C47.4442 28.6219 47.8879 28.8169 48.3329 29.009C48.7037 29.1692 49.0759 29.3256 49.4467 29.4854C49.9131 29.6864 50.3764 29.8933 50.7656 30.218C51.0801 30.4802 51.3401 30.7844 51.5439 31.1346C51.74 31.4716 51.8781 31.8251 51.9388 32.2055C51.9625 32.3542 51.9942 32.5038 51.9951 32.6529C52.0009 33.5589 52.0014 34.4645 51.9974 35.3705C51.9956 35.7398 51.9093 36.0946 51.7932 36.4473C51.627 36.9517 51.3308 37.3792 50.9555 37.7527C50.6928 38.0141 50.3805 38.2257 50.0338 38.3914C49.4936 38.6502 48.9204 38.7484 48.3244 38.7607C48.101 38.7654 47.878 38.7616 47.6546 38.7616C47.4688 38.7616 47.4455 38.776 47.4018 38.9443C47.3236 39.2447 47.1873 39.5226 47.0278 39.7891C46.7521 40.2497 46.4045 40.6551 45.9707 40.9925C45.6593 41.2348 45.322 41.4341 44.957 41.5964C44.3087 41.8849 43.6273 42.0162 42.9156 41.9929C42.5372 41.9805 42.1646 41.9274 41.7969 41.8246C41.267 41.6767 40.7822 41.4494 40.3426 41.1374C39.8252 40.7699 39.4026 40.3211 39.0925 39.7776C38.9326 39.4976 38.7941 39.2116 38.7096 38.9026C38.6833 38.8058 38.6305 38.759 38.513 38.759C34.0175 38.7616 29.522 38.762 25.0269 38.7586C24.8956 38.7586 24.8571 38.8287 24.8312 38.9184C24.6275 39.6191 24.2334 40.2153 23.7026 40.7265C23.3635 41.0529 22.9806 41.3359 22.5316 41.5203C22.2363 41.6414 21.9428 41.7753 21.6345 41.856C21.164 41.9797 20.6775 42.0281 20.1878 41.9839C19.926 41.9601 19.6637 41.9257 19.4059 41.8756C19.2183 41.839 19.0333 41.7787 18.8546 41.712C18.5159 41.5858 18.1952 41.4264 17.8958 41.2271C17.5683 41.0091 17.2726 40.7605 17.0139 40.4703C16.7731 40.1996 16.5666 39.9068 16.4058 39.5889C16.2986 39.3773 16.2204 39.1517 16.1413 38.9286C16.0913 38.7871 16.0725 38.7692 15.9193 38.7603C15.556 38.7395 15.1879 38.739 14.8313 38.6778C14.5177 38.6239 14.2125 38.5164 13.9248 38.3685C13.6317 38.2176 13.3654 38.0349 13.1273 37.8169C12.8673 37.5794 12.6403 37.3146 12.4746 37.0065C12.429 36.922 12.3705 36.8425 12.3334 36.755C12.2713 36.6083 12.2177 36.4579 12.1667 36.3075C12.0112 35.8468 11.9952 35.3718 12.001 34.8933C12.009 34.2244 11.9965 33.5555 12.0126 32.8871C12.0175 32.6818 12.072 32.474 12.1323 32.2752C12.206 32.0325 12.286 31.7869 12.4062 31.5638C12.5282 31.3373 12.693 31.1295 12.8561 30.9259C13.0715 30.657 13.3404 30.4381 13.6398 30.2575C13.8739 30.1164 14.1151 29.9855 14.3868 29.9133C14.847 29.7909 15.3054 29.6613 15.7647 29.5364C16.1887 29.4212 16.6127 29.3048 17.0384 29.1943C17.4674 29.0825 17.8994 28.9801 18.3283 28.8683C18.7536 28.7579 19.1772 28.6393 19.6025 28.528C19.9314 28.4421 20.2638 28.3682 20.5908 28.2755C20.6766 28.2513 20.7668 28.1923 20.8218 28.1247C21.4683 27.3292 22.109 26.5294 22.7501 25.7301C23.2858 25.0625 23.817 24.3919 24.3558 23.7265C24.6936 23.3092 25.0912 22.948 25.5617 22.6692C25.9205 22.4567 26.3056 22.2969 26.7144 22.1809C27.209 22.0411 27.7139 22.0033 28.2232 22.0025C30.1511 21.9982 32.0785 22.0008 34.0063 22.0008ZM50.3452 34.0561C50.3487 34.0561 50.3528 34.0561 50.3563 34.0561C50.3563 33.6596 50.3545 33.2636 50.3568 32.8671C50.3586 32.5441 50.2987 32.2339 50.1338 31.9501C49.9185 31.5804 49.6236 31.2859 49.2121 31.1078C48.9628 30.9999 48.714 30.8911 48.4651 30.7827C48.1452 30.6438 47.8258 30.5044 47.5059 30.3654C47.2566 30.2571 47.0073 30.1496 46.7579 30.0412C46.4921 29.9256 46.2254 29.8117 45.96 29.694C45.7817 29.615 45.6017 29.5342 45.4895 29.3694C45.2644 29.0379 45.0405 28.706 44.8194 28.372C44.545 27.9577 44.2752 27.5404 44.0022 27.1252C43.7252 26.7041 43.4491 26.2825 43.1689 25.8635C42.8848 25.4386 42.6145 25.0039 42.3053 24.5955C41.9689 24.151 41.4975 23.8629 40.9516 23.6921C40.5986 23.5816 40.2309 23.5573 39.8614 23.5573C36.0213 23.5573 32.1808 23.5556 28.3407 23.5599C28.0221 23.5599 27.7036 23.5998 27.385 23.6219C27.3667 23.6232 27.3475 23.6262 27.3305 23.6326C27.0414 23.7388 26.743 23.8157 26.4731 23.9759C26.1684 24.1569 25.9035 24.3779 25.6873 24.6405C25.0671 25.3931 24.4653 26.1589 23.8554 26.9187C23.2366 27.69 22.6143 28.4583 21.9991 29.2321C21.8034 29.4781 21.5728 29.6558 21.2436 29.7131C21.0327 29.7497 20.8285 29.8185 20.6207 29.8729C20.3634 29.9401 20.106 30.0076 19.8487 30.0748C19.6271 30.1326 19.405 30.1899 19.1834 30.2477C18.9368 30.3123 18.6906 30.3778 18.444 30.4419C18.2153 30.5014 17.9856 30.5592 17.7569 30.6187C17.5138 30.682 17.2717 30.7483 17.0282 30.8112C16.7994 30.8707 16.5689 30.9255 16.3401 30.9854C16.0077 31.0725 15.6775 31.1665 15.3442 31.2506C15.0677 31.3203 14.796 31.3947 14.5508 31.543C14.003 31.8744 13.6791 32.3478 13.655 32.9602C13.6241 33.7518 13.6438 34.5448 13.6424 35.3373C13.642 35.7075 13.7532 36.047 13.9583 36.3589C14.1629 36.6695 14.4471 36.8973 14.7974 37.0452C15.1235 37.1829 15.4711 37.2088 15.8245 37.199C15.9304 37.1961 15.9755 37.1582 15.9876 37.0575C16.035 36.6585 16.1569 36.2765 16.3289 35.9123C16.4853 35.5817 16.6859 35.2749 16.9218 34.9859C17.1801 34.6697 17.4839 34.399 17.8199 34.1691C18.1031 33.9754 18.4105 33.8126 18.7398 33.6834C19.2027 33.5016 19.6825 33.4102 20.1731 33.3566C20.4952 33.3214 20.8169 33.352 21.1399 33.3953C21.496 33.4433 21.8382 33.5304 22.1693 33.6541C22.5709 33.8037 22.944 34.0077 23.2827 34.2639C23.8032 34.6578 24.2231 35.1283 24.5243 35.6964C24.7571 36.1354 24.9241 36.5909 24.9791 37.0805C24.9885 37.1655 25.0323 37.199 25.1163 37.1978C25.1498 37.1973 25.1833 37.1978 25.2168 37.1978C29.5854 37.1978 33.9541 37.1978 38.3227 37.1978C38.3562 37.1978 38.3897 37.1965 38.4232 37.1978C38.5072 37.1999 38.5461 37.1663 38.5631 37.083C38.6216 36.7928 38.6716 36.503 38.7829 36.2216C38.9594 35.7755 39.1917 35.3658 39.4995 34.9897C39.7761 34.6519 40.1004 34.3621 40.4695 34.1241C40.7371 33.9516 41.0204 33.8003 41.3255 33.6809C41.7602 33.5101 42.211 33.4161 42.6703 33.3647C43.3852 33.2848 44.0781 33.4076 44.7447 33.6524C45.1504 33.8016 45.5266 34.0085 45.8675 34.2673C46.384 34.6595 46.8008 35.1295 47.102 35.6926C47.333 36.1243 47.4969 36.5739 47.5523 37.0558C47.5648 37.165 47.6153 37.2012 47.7243 37.1995C47.9589 37.1956 48.193 37.2003 48.4276 37.1973C48.7399 37.1931 49.0361 37.1285 49.3149 36.9874C49.9283 36.6776 50.2728 36.1813 50.3353 35.54C50.3831 35.0492 50.3447 34.5503 50.3447 34.0553L50.3452 34.0561ZM20.2776 40.4006C21.8271 40.5204 23.3345 39.4126 23.3805 37.7124C23.4176 36.3402 22.3556 35.0135 20.6431 34.9094C19.1383 34.818 17.642 35.8634 17.5799 37.6142C17.5326 38.9464 18.5923 40.2965 20.2781 40.4002L20.2776 40.4006ZM43.0537 34.8992C41.4287 34.9285 40.1643 36.1073 40.159 37.6584C40.1536 39.1729 41.4068 40.4159 43.059 40.4121C44.7023 40.4087 45.9703 39.1852 45.9609 37.6584C45.9515 36.1035 44.6844 34.9234 43.0541 34.8996L43.0537 34.8992Z" fill="#F1416C"/>
</svg>
